# xmcd
#
# Track frame offsets:
#	150
#	11479
#	29773
#	42226
#	52882
#	63341
#	77928
#	91597
#	104136
#	124200
#	136446
#	146619
#	159680
#	175088
#	192932
#	202822
#
# Disc length: 2955 seconds
# Revision: 0
# Processed by: cddbd v1.5.2PL0 Copyright (c) Steve Scherf et al.
# Submitted via: dBpowerAMP V12.0
#
DISCID=dd0b8910
DTITLE=Bob Bovee • Gail Heil - When The Cactus Is In Bloom
DYEAR=2000
DGENRE=Folk
TTITLE0=Dry And Dusty
TTITLE1='Long Side of the Santa Fe Trail'
TTITLE2=The Yellow Rose Of Texas
TTITLE3=The Cowboy's Wife
TTITLE4=Viola Ruth Schottische
TTITLE5=So Long (It's Been Good to Know Yuh)
TTITLE6=The Sportin' Cowboy
TTITLE7=California Blues
TTITLE8=The Dying Ranger
TTITLE9=Robinson County
TTITLE10=When The Cactus Is In Bloom
TTITLE11=Escudilla Waltz
TTITLE12=The Farmer Is The Man
TTITLE13=Get Along, Little Dogies
TTITLE14=Spotted Pony
TTITLE15=Lee's Ferry/The Jone's Waltz
EXTD=
EXTT0=
EXTT1=
EXTT2=
EXTT3=
EXTT4=
EXTT5=
EXTT6=
EXTT7=
EXTT8=
EXTT9=
EXTT10=
EXTT11=
EXTT12=
EXTT13=
EXTT14=
EXTT15=
PLAYORDER=
